<?xml version="1.0" encoding="UTF-8" standalone="no"?>
<!DOCTYPE svg PUBLIC "-//W3C//DTD SVG 1.1//EN"
 "http://www.w3.org/Graphics/SVG/1.1/DTD/svg11.dtd">
<!-- Generated by graphviz version 2.26.3 (20100126.1600)
 -->
<!-- Title: _anonymous_0 Pages: 1 -->
<svg width="432pt" height="288pt"
 viewBox="0.00 0.00 432.00 288.00" xmlns="http://www.w3.org/2000/svg" xmlns:xlink="http://www.w3.org/1999/xlink">
<g id="graph1" class="graph" transform="scale(1 1) rotate(0) translate(4 284)">
<title>_anonymous_0</title>
<polygon fill="white" stroke="white" points="-4,5 -4,-284 429,-284 429,5 -4,5"/>
<text text-anchor="middle" x="212" y="-8.4" font-family="Times Roman,serif" font-size="14.00">JavaScript require</text>
<g id="graph2" class="cluster"><title>clusterComponent</title>
<polygon fill="none" stroke="black" points="8,-33 8,-200 394,-200 394,-33 8,-33"/>
<text text-anchor="middle" x="201" y="-183.4" font-family="Times Roman,serif" font-size="14.00">component</text>
</g>
<!-- component.scss -->
<g id="node2" class="node"><title>component.scss</title>
<ellipse fill="none" stroke="black" cx="103" cy="-59" rx="86.8603" ry="18"/>
<text text-anchor="middle" x="103" y="-54.9" font-family="Times Roman,serif" font-size="14.00">component.scss</text>
</g>
<!-- component.js -->
<g id="node3" class="node"><title>component.js</title>
<ellipse fill="none" stroke="black" cx="172" cy="-149" rx="75.0473" ry="18"/>
<text text-anchor="middle" x="172" y="-144.9" font-family="Times Roman,serif" font-size="14.00">component.js</text>
</g>
<!-- component.js&#45;&gt;component.scss -->
<g id="edge8" class="edge"><title>component.js&#45;&gt;component.scss</title>
<path fill="none" stroke="black" d="M158.368,-131.219C148.321,-118.115 134.493,-100.078 123.17,-85.3088"/>
<polygon fill="black" stroke="black" points="125.702,-82.8588 116.84,-77.0522 120.147,-87.1178 125.702,-82.8588"/>
<text text-anchor="middle" x="173.5" y="-99.9" font-family="Times Roman,serif" font-size="14.00">require()</text>
</g>
<!-- component.html -->
<g id="node4" class="node"><title>component.html</title>
<ellipse fill="none" stroke="black" cx="297" cy="-59" rx="89.139" ry="18"/>
<text text-anchor="middle" x="297" y="-54.9" font-family="Times Roman,serif" font-size="14.00">component.html</text>
</g>
<!-- component.js&#45;&gt;component.html -->
<g id="edge10" class="edge"><title>component.js&#45;&gt;component.html</title>
<path fill="none" stroke="black" d="M195.806,-131.86C215.316,-117.812 243.121,-97.7928 264.65,-82.2923"/>
<polygon fill="black" stroke="black" points="266.787,-85.0664 272.857,-76.3829 262.697,-79.3856 266.787,-85.0664"/>
<text text-anchor="middle" x="275.5" y="-99.9" font-family="Times Roman,serif" font-size="14.00">require()</text>
</g>
<!-- index.html -->
<g id="node6" class="node"><title>index.html</title>
<ellipse fill="none" stroke="black" cx="172" cy="-262" rx="62.0391" ry="18"/>
<text text-anchor="middle" x="172" y="-257.9" font-family="Times Roman,serif" font-size="14.00">index.html</text>
</g>
<!-- index.html&#45;&gt;component.js -->
<g id="edge6" class="edge"><title>index.html&#45;&gt;component.js</title>
<path fill="none" stroke="black" d="M172,-243.845C172,-225.888 172,-198.147 172,-177.297"/>
<polygon fill="black" stroke="black" points="175.5,-177.11 172,-167.11 168.5,-177.11 175.5,-177.11"/>
<text text-anchor="middle" x="203" y="-212.9" font-family="Times Roman,serif" font-size="14.00">&lt;script&gt;</text>
</g>
<!-- main.scss -->
<g id="node8" class="node"><title>main.scss</title>
<ellipse fill="none" stroke="black" cx="367" cy="-262" rx="56.9803" ry="18"/>
<text text-anchor="middle" x="367" y="-257.9" font-family="Times Roman,serif" font-size="14.00">main.scss</text>
</g>
<!-- index.html&#45;&gt;main.scss -->
<g id="edge4" class="edge"><title>index.html&#45;&gt;main.scss</title>
<path fill="none" stroke="black" d="M234.504,-262C255.278,-262 278.496,-262 299.623,-262"/>
<polygon fill="black" stroke="black" points="299.806,-265.5 309.806,-262 299.805,-258.5 299.806,-265.5"/>
<text text-anchor="middle" x="272" y="-266.4" font-family="Times Roman,serif" font-size="14.00">&lt;style&gt;</text>
</g>
</g>
</svg>
