<?xml version="1.0" encoding="UTF-8" standalone="no"?>
<!DOCTYPE svg PUBLIC "-//W3C//DTD SVG 1.1//EN"
 "http://www.w3.org/Graphics/SVG/1.1/DTD/svg11.dtd">
<!-- Generated by graphviz version 2.26.3 (20100126.1600)
 -->
<!-- Title: _anonymous_0 Pages: 1 -->
<svg width="404pt" height="288pt"
 viewBox="0.00 0.00 404.00 288.00" xmlns="http://www.w3.org/2000/svg" xmlns:xlink="http://www.w3.org/1999/xlink">
<g id="graph1" class="graph" transform="scale(1 1) rotate(0) translate(4 284)">
<title>_anonymous_0</title>
<polygon fill="white" stroke="white" points="-4,5 -4,-284 401,-284 401,5 -4,5"/>
<text text-anchor="middle" x="198" y="-8.4" font-family="Times Roman,serif" font-size="14.00">Web component</text>
<g id="graph2" class="cluster"><title>clusterComponent</title>
<polygon fill="none" stroke="black" points="8,-33 8,-200 366,-200 366,-33 8,-33"/>
<text text-anchor="middle" x="187" y="-183.4" font-family="Times Roman,serif" font-size="14.00">component</text>
</g>
<!-- component.scss -->
<g id="node2" class="node"><title>component.scss</title>
<ellipse fill="none" stroke="black" cx="103" cy="-59" rx="86.8603" ry="18"/>
<text text-anchor="middle" x="103" y="-54.9" font-family="Times Roman,serif" font-size="14.00">component.scss</text>
</g>
<!-- component.js -->
<g id="node3" class="node"><title>component.js</title>
<ellipse fill="none" stroke="black" cx="283" cy="-59" rx="75.0473" ry="18"/>
<text text-anchor="middle" x="283" y="-54.9" font-family="Times Roman,serif" font-size="14.00">component.js</text>
</g>
<!-- component.html -->
<g id="node4" class="node"><title>component.html</title>
<ellipse fill="none" stroke="black" cx="144" cy="-149" rx="89.139" ry="18"/>
<text text-anchor="middle" x="144" y="-144.9" font-family="Times Roman,serif" font-size="14.00">component.html</text>
</g>
<!-- component.html&#45;&gt;component.scss -->
<g id="edge8" class="edge"><title>component.html&#45;&gt;component.scss</title>
<path fill="none" stroke="black" d="M135.703,-130.787C129.923,-118.1 122.109,-100.947 115.569,-86.5897"/>
<polygon fill="black" stroke="black" points="118.615,-84.835 111.285,-77.1858 112.245,-87.737 118.615,-84.835"/>
<text text-anchor="middle" x="156" y="-99.9" font-family="Times Roman,serif" font-size="14.00">&lt;style&gt;</text>
</g>
<!-- component.html&#45;&gt;component.js -->
<g id="edge10" class="edge"><title>component.html&#45;&gt;component.js</title>
<path fill="none" stroke="black" d="M170.801,-131.647C192.863,-117.362 224.297,-97.0089 248.284,-81.478"/>
<polygon fill="black" stroke="black" points="250.261,-84.3674 256.753,-75.9944 246.457,-78.4915 250.261,-84.3674"/>
<text text-anchor="middle" x="256" y="-99.9" font-family="Times Roman,serif" font-size="14.00">&lt;script&gt;</text>
</g>
<!-- index.html -->
<g id="node6" class="node"><title>index.html</title>
<ellipse fill="none" stroke="black" cx="144" cy="-262" rx="62.0391" ry="18"/>
<text text-anchor="middle" x="144" y="-257.9" font-family="Times Roman,serif" font-size="14.00">index.html</text>
</g>
<!-- index.html&#45;&gt;component.html -->
<g id="edge6" class="edge"><title>index.html&#45;&gt;component.html</title>
<path fill="none" stroke="black" d="M144,-243.845C144,-225.888 144,-198.147 144,-177.297"/>
<polygon fill="black" stroke="black" points="147.5,-177.11 144,-167.11 140.5,-177.11 147.5,-177.11"/>
<text text-anchor="middle" x="168.5" y="-212.9" font-family="Times Roman,serif" font-size="14.00">&lt;link&gt;</text>
</g>
<!-- main.scss -->
<g id="node8" class="node"><title>main.scss</title>
<ellipse fill="none" stroke="black" cx="339" cy="-262" rx="56.9803" ry="18"/>
<text text-anchor="middle" x="339" y="-257.9" font-family="Times Roman,serif" font-size="14.00">main.scss</text>
</g>
<!-- index.html&#45;&gt;main.scss -->
<g id="edge4" class="edge"><title>index.html&#45;&gt;main.scss</title>
<path fill="none" stroke="black" d="M206.504,-262C227.278,-262 250.496,-262 271.623,-262"/>
<polygon fill="black" stroke="black" points="271.806,-265.5 281.806,-262 271.805,-258.5 271.806,-265.5"/>
<text text-anchor="middle" x="244" y="-266.4" font-family="Times Roman,serif" font-size="14.00">&lt;style&gt;</text>
</g>
</g>
</svg>
