<?xml version="1.0" encoding="UTF-8" standalone="no"?>
<!DOCTYPE svg PUBLIC "-//W3C//DTD SVG 1.1//EN"
 "http://www.w3.org/Graphics/SVG/1.1/DTD/svg11.dtd">
<!-- Generated by graphviz version 2.26.3 (20100126.1600)
 -->
<!-- Title: _anonymous_0 Pages: 1 -->
<svg width="464pt" height="288pt"
 viewBox="0.00 0.00 464.00 288.00" xmlns="http://www.w3.org/2000/svg" xmlns:xlink="http://www.w3.org/1999/xlink">
<g id="graph1" class="graph" transform="scale(1 1) rotate(0) translate(4 284)">
<title>_anonymous_0</title>
<polygon fill="white" stroke="white" points="-4,5 -4,-284 461,-284 461,5 -4,5"/>
<text text-anchor="middle" x="228" y="-8.4" font-family="Times Roman,serif" font-size="14.00">CSS import</text>
<g id="graph2" class="cluster"><title>clusterComponent</title>
<polygon fill="none" stroke="black" points="8,-33 8,-200 366,-200 366,-33 8,-33"/>
<text text-anchor="middle" x="187" y="-183.4" font-family="Times Roman,serif" font-size="14.00">component</text>
</g>
<!-- component.scss -->
<g id="node2" class="node"><title>component.scss</title>
<ellipse fill="none" stroke="black" cx="103" cy="-149" rx="86.8603" ry="18"/>
<text text-anchor="middle" x="103" y="-144.9" font-family="Times Roman,serif" font-size="14.00">component.scss</text>
</g>
<!-- component.js -->
<g id="node3" class="node"><title>component.js</title>
<ellipse fill="none" stroke="black" cx="283" cy="-149" rx="75.0473" ry="18"/>
<text text-anchor="middle" x="283" y="-144.9" font-family="Times Roman,serif" font-size="14.00">component.js</text>
</g>
<!-- component.html -->
<g id="node4" class="node"><title>component.html</title>
<ellipse fill="none" stroke="black" cx="269" cy="-59" rx="89.139" ry="18"/>
<text text-anchor="middle" x="269" y="-54.9" font-family="Times Roman,serif" font-size="14.00">component.html</text>
</g>
<!-- component.js&#45;&gt;component.html -->
<g id="edge8" class="edge"><title>component.js&#45;&gt;component.html</title>
<path fill="none" stroke="black" d="M280.167,-130.787C278.231,-118.344 275.627,-101.605 273.421,-87.4211"/>
<polygon fill="black" stroke="black" points="276.824,-86.5289 271.829,-77.1858 269.908,-87.6049 276.824,-86.5289"/>
<text text-anchor="middle" x="307.5" y="-99.9" font-family="Times Roman,serif" font-size="14.00">require()</text>
</g>
<!-- index.html -->
<g id="node6" class="node"><title>index.html</title>
<ellipse fill="none" stroke="black" cx="204" cy="-262" rx="62.0391" ry="18"/>
<text text-anchor="middle" x="204" y="-257.9" font-family="Times Roman,serif" font-size="14.00">index.html</text>
</g>
<!-- index.html&#45;&gt;component.scss -->
<g id="edge10" class="edge"><title>index.html&#45;&gt;component.scss</title>
<path fill="none" stroke="#cc0000" d="M184.019,-244.599C177.744,-238.863 170.914,-232.328 165,-226 149.871,-209.813 134.234,-190.371 122.449,-175.073"/>
<polygon fill="#cc0000" stroke="#cc0000" points="125.174,-172.875 116.326,-167.047 119.609,-177.121 125.174,-172.875"/>
<text text-anchor="middle" x="195" y="-212.9" font-family="Times Roman,serif" font-size="14.00">@import</text>
</g>
<!-- index.html&#45;&gt;component.js -->
<g id="edge6" class="edge"><title>index.html&#45;&gt;component.js</title>
<path fill="none" stroke="black" d="M216.344,-244.344C229.312,-225.795 249.848,-196.419 264.701,-175.174"/>
<polygon fill="black" stroke="black" points="267.621,-177.106 270.482,-166.905 261.884,-173.095 267.621,-177.106"/>
<text text-anchor="middle" x="272" y="-212.9" font-family="Times Roman,serif" font-size="14.00">&lt;script&gt;</text>
</g>
<!-- main.scss -->
<g id="node8" class="node"><title>main.scss</title>
<ellipse fill="none" stroke="black" cx="399" cy="-262" rx="56.9803" ry="18"/>
<text text-anchor="middle" x="399" y="-257.9" font-family="Times Roman,serif" font-size="14.00">main.scss</text>
</g>
<!-- index.html&#45;&gt;main.scss -->
<g id="edge4" class="edge"><title>index.html&#45;&gt;main.scss</title>
<path fill="none" stroke="black" d="M266.504,-262C287.278,-262 310.496,-262 331.623,-262"/>
<polygon fill="black" stroke="black" points="331.806,-265.5 341.806,-262 331.805,-258.5 331.806,-265.5"/>
<text text-anchor="middle" x="304" y="-266.4" font-family="Times Roman,serif" font-size="14.00">&lt;style&gt;</text>
</g>
</g>
</svg>
