<?xml version="1.0" encoding="UTF-8" standalone="no"?>
<!DOCTYPE svg PUBLIC "-//W3C//DTD SVG 1.1//EN"
 "http://www.w3.org/Graphics/SVG/1.1/DTD/svg11.dtd">
<!-- Generated by graphviz version 2.26.3 (20100126.1600)
 -->
<!-- Title: _anonymous_0 Pages: 1 -->
<svg width="382pt" height="288pt"
 viewBox="0.00 0.00 382.00 288.00" xmlns="http://www.w3.org/2000/svg" xmlns:xlink="http://www.w3.org/1999/xlink">
<g id="graph1" class="graph" transform="scale(1 1) rotate(0) translate(4 284)">
<title>_anonymous_0</title>
<polygon fill="white" stroke="white" points="-4,5 -4,-284 379,-284 379,5 -4,5"/>
<text text-anchor="middle" x="187" y="-8.4" font-family="Times Roman,serif" font-size="14.00">SASS @import</text>
<g id="graph2" class="cluster"><title>clusterComponent</title>
<polygon fill="none" stroke="black" points="8,-33 8,-200 366,-200 366,-33 8,-33"/>
<text text-anchor="middle" x="187" y="-183.4" font-family="Times Roman,serif" font-size="14.00">component</text>
</g>
<!-- component.scss -->
<g id="node2" class="node"><title>component.scss</title>
<ellipse fill="none" stroke="black" cx="271" cy="-149" rx="86.8603" ry="18"/>
<text text-anchor="middle" x="271" y="-144.9" font-family="Times Roman,serif" font-size="14.00">component.scss</text>
</g>
<!-- component.js -->
<g id="node3" class="node"><title>component.js</title>
<ellipse fill="none" stroke="black" cx="91" cy="-149" rx="75.0473" ry="18"/>
<text text-anchor="middle" x="91" y="-144.9" font-family="Times Roman,serif" font-size="14.00">component.js</text>
</g>
<!-- component.html -->
<g id="node4" class="node"><title>component.html</title>
<ellipse fill="none" stroke="black" cx="105" cy="-59" rx="89.139" ry="18"/>
<text text-anchor="middle" x="105" y="-54.9" font-family="Times Roman,serif" font-size="14.00">component.html</text>
</g>
<!-- component.js&#45;&gt;component.html -->
<g id="edge10" class="edge"><title>component.js&#45;&gt;component.html</title>
<path fill="none" stroke="black" d="M93.8331,-130.787C95.7687,-118.344 98.3725,-101.605 100.579,-87.4211"/>
<polygon fill="black" stroke="black" points="104.092,-87.6049 102.171,-77.1858 97.1755,-86.5289 104.092,-87.6049"/>
<text text-anchor="middle" x="130.5" y="-99.9" font-family="Times Roman,serif" font-size="14.00">require()</text>
</g>
<!-- index.html -->
<g id="node6" class="node"><title>index.html</title>
<ellipse fill="none" stroke="black" cx="82" cy="-262" rx="62.0391" ry="18"/>
<text text-anchor="middle" x="82" y="-257.9" font-family="Times Roman,serif" font-size="14.00">index.html</text>
</g>
<!-- index.html&#45;&gt;component.js -->
<g id="edge8" class="edge"><title>index.html&#45;&gt;component.js</title>
<path fill="none" stroke="black" d="M83.446,-243.845C84.8762,-225.888 87.0857,-198.147 88.7463,-177.297"/>
<polygon fill="black" stroke="black" points="92.2525,-177.357 89.5576,-167.11 85.2746,-176.801 92.2525,-177.357"/>
<text text-anchor="middle" x="118" y="-212.9" font-family="Times Roman,serif" font-size="14.00">&lt;script&gt;</text>
</g>
<!-- main.scss -->
<g id="node8" class="node"><title>main.scss</title>
<ellipse fill="none" stroke="black" cx="277" cy="-262" rx="56.9803" ry="18"/>
<text text-anchor="middle" x="277" y="-257.9" font-family="Times Roman,serif" font-size="14.00">main.scss</text>
</g>
<!-- index.html&#45;&gt;main.scss -->
<g id="edge4" class="edge"><title>index.html&#45;&gt;main.scss</title>
<path fill="none" stroke="black" d="M144.504,-262C165.278,-262 188.496,-262 209.623,-262"/>
<polygon fill="black" stroke="black" points="209.806,-265.5 219.806,-262 209.805,-258.5 209.806,-265.5"/>
<text text-anchor="middle" x="182" y="-266.4" font-family="Times Roman,serif" font-size="14.00">&lt;style&gt;</text>
</g>
<!-- main.scss&#45;&gt;component.scss -->
<g id="edge6" class="edge"><title>main.scss&#45;&gt;component.scss</title>
<path fill="none" stroke="#cc0000" d="M276.036,-243.845C275.083,-225.888 273.61,-198.147 272.502,-177.297"/>
<polygon fill="#cc0000" stroke="#cc0000" points="275.987,-176.911 271.962,-167.11 268.997,-177.282 275.987,-176.911"/>
<text text-anchor="middle" x="305" y="-212.9" font-family="Times Roman,serif" font-size="14.00">@import</text>
</g>
</g>
</svg>
