<?xml version="1.0" ?>
<!DOCTYPE svg  PUBLIC '-//W3C//DTD SVG 1.1//EN'  'http://www.w3.org/Graphics/SVG/1.1/DTD/svg11.dtd'>

<svg enable-background="new 0 0 256 256" height="256px" id="Layer_1" version="1.1" viewBox="0 0 256 256" width="256px" xml:space="preserve" xmlns="http://www.w3.org/2000/svg" xmlns:xlink="http://www.w3.org/1999/xlink">
    <style>
        path, polygon {
            fill: white;
        }

        path {
            opacity: 0.8;
        }

        .inner {
            opacity: 0.6;
        }

        #dots path {
            opacity: 0.5;
        }

        .outer {
            opacity: 0.4;
        }
    </style>

    <g id="light">
        <g id="beams">
            <path class="inner" d="M61.461,177.983c3.046-2.12,7.238-1.368,9.363,1.673c2.125,3.052,1.379,7.242-1.669,9.372    c-3.045,2.125-7.241,1.37-9.371-1.674C57.667,184.313,58.411,180.119,61.461,177.983z"/>
            <path class="outer" d="M47.93,189.456c2.294-1.587,5.444-1.023,7.036,1.26c1.591,2.285,1.036,5.433-1.257,7.027    c-2.293,1.59-5.437,1.033-7.031-1.253C45.086,194.203,45.655,191.054,47.93,189.456z"/>

            <path class="inner" d="M48.2,126.75c4.362,0.256,7.69,4.01,7.429,8.367c-0.253,4.357-4.008,7.689-8.369,7.428    c-4.358-0.25-7.686-3.994-7.431-8.356C40.083,129.819,43.831,126.489,48.2,126.75z"/>
            <path class="outer" d="M27.342,127.495c3.27,0.198,5.772,3.006,5.581,6.288c-0.202,3.261-3.007,5.76-6.283,5.572    c-3.274-0.199-5.768-3.012-5.57-6.278C21.265,129.805,24.076,127.302,27.342,127.495z"/>

            <path class="inner" d="M73.691,70.998c3.839,3.417,4.181,9.302,0.762,13.14c-3.41,3.84-9.297,4.187-13.14,0.771    c-3.844-3.411-4.186-9.3-0.769-13.147C63.961,67.928,69.847,67.572,73.691,70.998z"/>
            <path class="outer" d="M55.39,57.907c2.88,2.561,3.143,6.974,0.573,9.857c-2.563,2.88-6.973,3.14-9.857,0.581    c-2.881-2.571-3.139-6.985-0.579-9.868C48.088,55.599,52.503,55.341,55.39,57.907z"/>

            <path class="inner" d="M128.002,32.126c-6.942,0-12.556,5.621-12.556,12.553c0,6.928,5.614,12.557,12.556,12.557    c6.923,0,12.542-5.628,12.542-12.557C140.545,37.747,134.926,32.126,128.002,32.126z"/>
            <path class="outer" d="M128.002,9.311c-4.28,0-7.745,3.466-7.745,7.739c0,4.271,3.465,7.735,7.745,7.735c4.27,0,7.726-3.465,7.726-7.735    C135.729,12.777,132.272,9.311,128.002,9.311z"/>

            <path class="inner" d="M182.3,70.998c-3.84,3.417-4.177,9.302-0.763,13.14c3.413,3.84,9.3,4.187,13.14,0.771c3.847-3.411,4.18-9.3,0.771-13.147    C192.035,67.928,186.145,67.572,182.3,70.998z"/>
            <path class="outer" d="M200.604,57.907c-2.878,2.561-3.139,6.974-0.576,9.857c2.568,2.88,6.99,3.14,9.861,0.581    c2.878-2.571,3.136-6.985,0.575-9.868C207.9,55.599,203.487,55.341,200.604,57.907z"/>

            <path class="inner" d="M207.792,126.75c-4.363,0.256-7.685,4.01-7.432,8.367c0.254,4.357,4.009,7.689,8.363,7.428    c4.363-0.25,7.691-3.994,7.437-8.356C215.905,129.819,212.161,126.489,207.792,126.75z"/>
            <path class="outer" d="M228.648,127.495c-3.266,0.198-5.77,3.006-5.572,6.288c0.192,3.261,2.996,5.76,6.275,5.572    c3.272-0.199,5.767-3.012,5.572-6.278C234.73,129.805,231.916,127.302,228.648,127.495z"/>

            <path class="inner" d="M194.529,177.983c-3.036-2.12-7.238-1.368-9.364,1.673c-2.125,3.052-1.366,7.242,1.672,9.372    c3.049,2.125,7.244,1.37,9.364-1.674C198.325,184.313,197.583,180.119,194.529,177.983z"/>
            <path class="outer" d="M208.053,189.456c-2.287-1.587-5.429-1.023-7.023,1.26c-1.589,2.285-1.024,5.433,1.253,7.027    c2.285,1.59,5.43,1.033,7.029-1.253C210.899,194.203,210.337,191.054,208.053,189.456z"/>
        </g>

        <g id="dots">
            <path d="M76.782,189.456c1.742-2.896,5.5-3.843,8.409-2.096c2.898,1.729,3.844,5.501,2.1,8.391    c-1.741,2.907-5.507,3.85-8.401,2.114C75.985,196.126,75.054,192.358,76.782,189.456z"/>

            <path d="M56.189,150.813c5.023-1.438,10.27,1.468,11.704,6.483c1.438,5.027-1.473,10.267-6.493,11.699    c-5.021,1.441-10.264-1.469-11.698-6.485C48.267,157.493,51.17,152.254,56.189,150.813z"/>

            <path d="M62.438,98.263c5.673,2.065,8.601,8.346,6.543,14.018c-2.08,5.668-8.344,8.607-14.03,6.535    c-5.673-2.062-8.591-8.335-6.536-14.013C50.487,99.135,56.76,96.209,62.438,98.263z"/>

            <path d="M107.639,58.341c3.004,5.468,1.013,12.338-4.442,15.354c-5.464,3.001-12.334,1.01-15.344-4.45    c-3.009-5.463-1.016-12.337,4.447-15.352C97.76,50.896,104.623,52.882,107.639,58.341z"/>

            <path d="M148.356,58.341c-3.014,5.468-1.013,12.338,4.441,15.354c5.461,3.001,12.333,1.01,15.345-4.45    c3.007-5.463,1.016-12.337-4.455-15.352C158.238,50.896,151.363,52.882,148.356,58.341z"/>

            <path d="M193.557,98.263c-5.678,2.065-8.596,8.346-6.537,14.018c2.065,5.668,8.334,8.607,14.02,6.535    c5.669-2.062,8.593-8.335,6.538-14.013C205.508,99.135,199.23,96.209,193.557,98.263z"/>

            <path d="M199.804,150.813c-5.025-1.438-10.265,1.468-11.706,6.483c-1.439,5.027,1.474,10.267,6.5,11.699    c5.019,1.441,10.25-1.469,11.699-6.485C207.723,157.493,204.825,152.254,199.804,150.813z"/>

            <path d="M179.207,189.456c-1.737-2.896-5.508-3.843-8.408-2.096c-2.897,1.729-3.845,5.501-2.09,8.391    c1.733,2.907,5.499,3.85,8.393,2.114C180,196.126,180.94,192.358,179.207,189.456z"/>
        </g>

        <g id="inner">
            <path d="M194.285,135.479c-0.23-3.867-2.508-7.129-5.725-8.771l-0.071,0.076c-6.703-3.2-11.339-10.048-11.339-17.969    c0-2.579,0.49-5.027,1.377-7.293l0.045,0.017c1.531-4.156,0.771-9.011-2.37-12.549c-3.051-3.439-7.599-4.772-11.806-3.904    l0.028,0.006c-1.642,0.435-3.354,0.668-5.125,0.668c-8.257,0-15.354-5.037-18.362-12.21l0.027-0.007    c-2.432-4.689-7.335-7.881-12.962-7.881c-5.644,0-10.545,3.192-12.981,7.881l0.033,0.007c-3.02,7.173-10.105,12.21-18.365,12.21    c-1.764,0-3.487-0.234-5.118-0.668l0.028-0.006c-4.206-0.869-8.753,0.464-11.819,3.904c-3.146,3.538-3.895,8.394-2.363,12.549    l0.045-0.017c0.887,2.266,1.378,4.714,1.378,7.293c0,7.921-4.623,14.769-11.338,17.969l-0.07-0.076    c-3.22,1.643-5.498,4.904-5.728,8.771c-0.23,3.89,1.683,7.425,4.729,9.427h0.004c5.355,3.571,8.893,9.666,8.893,16.592    c0,2.307-0.387,4.526-1.114,6.592l-0.014-0.074c-1.196,2.747-0.974,6.051,0.871,8.688c1.707,2.466,4.443,3.794,7.226,3.833v-0.008    c5.704,0,10.238,4.806,10.282,10.704c0,0.317,0.019,0.211,0,0.51c-0.118,3.278,1.918,6.381,5.192,7.482    c3.997,1.331,8.316-0.813,9.655-4.812c0.646-1.915,0.47-3.905-0.319-5.604l-0.159-0.143c-3.433-6.564-9.758-13.599-10.814-14.655    c-9.863-9.652-13.738-20.214-13.738-33.409c0-25.208,20.404-45.648,45.602-45.728c25.189,0.08,45.589,20.52,45.589,45.728    c0,13.195-3.877,23.757-13.735,33.409c-1.06,1.057-7.388,8.091-10.817,14.655l-0.168,0.143c-0.78,1.699-0.964,3.689-0.317,5.604    c1.343,3.998,5.659,6.143,9.661,4.812c3.271-1.102,5.299-4.204,5.191-7.482c-0.021-0.299,0-0.192,0-0.51    c0.045-5.898,4.579-10.704,10.279-10.704v0.008c2.787-0.039,5.521-1.367,7.237-3.833c1.847-2.638,2.067-5.941,0.869-8.688    l-0.017,0.074c-0.72-2.065-1.115-4.285-1.115-6.592c0-6.926,3.531-13.021,8.899-16.592h0.006    C192.598,142.903,194.52,139.368,194.285,135.479z"/>
        </g>
    </g>
    <g id="base">
        <polygon points="138.446,208.804 135.5,208.804 135.5,211.815 138.446,211.43  "/>
        <path d="M138.446,226.421v-1.435l10.137-1.366c0.808-0.11,1.375-0.86,1.268-1.663c-0.111-0.809-0.852-1.373-1.664-1.263   l-25.845,3.365c-0.812,0.106-1.553-0.458-1.665-1.266c-0.107-0.808,0.46-1.553,1.268-1.658l9.682-1.307v-1.421l3.873-0.522v1.435   l2.946-0.391v-1.44l10.137-1.367c0.808-0.11,1.375-0.86,1.268-1.663c-0.111-0.809-0.852-1.373-1.664-1.263l-25.845,3.366   c-0.812,0.11-1.553-0.454-1.665-1.263c-0.107-0.804,0.46-1.553,1.268-1.663l9.682-1.312v-3.521l-22.526,0.003v6.65l-0.476,0.088   c-0.986,0.136-1.672,1.036-1.543,2.022c0.13,0.983,1.033,1.673,2.019,1.548v3.834l-0.476,0.094   c-0.986,0.137-1.672,1.048-1.543,2.025c0.13,0.984,1.033,1.677,2.019,1.543v3.849l-0.476,0.09   c-0.986,0.127-1.672,1.036-1.543,2.023c0.13,0.976,1.033,1.67,2.019,1.532v0.008v3.678l4.75,4.624h7.483   c0.087,2.045,2.894,3.687,6.337,3.687c3.446,0,6.244-1.642,6.339-3.687h7.892l4.725-4.585l-0.02-6.443l1.975-0.266   c0.808-0.11,1.375-0.86,1.268-1.663c-0.111-0.81-0.852-1.373-1.664-1.263v-0.004l-25.845,3.369   c-0.812,0.112-1.553-0.454-1.665-1.257c-0.107-0.819,0.46-1.559,1.268-1.67l9.682-1.302v-1.427l3.873-0.521v1.436L138.446,226.421z    M116.565,214.362c0.84,0,1.521,0.687,1.521,1.522s-0.681,1.519-1.521,1.519c-0.842,0-1.523-0.683-1.523-1.519   S115.723,214.362,116.565,214.362z M116.565,232.408c-0.842,0-1.523-0.682-1.523-1.526c0-0.835,0.681-1.52,1.523-1.52   c0.84,0,1.521,0.685,1.521,1.52C118.086,231.727,117.405,232.408,116.565,232.408z M116.621,224.897   c-0.84,0-1.524-0.675-1.524-1.512s0.684-1.522,1.524-1.522c0.845,0,1.521,0.686,1.521,1.522S117.466,224.897,116.621,224.897z"/>
    </g>
</svg>
