<?xml version="1.0" ?>
<svg
  xmlns="http://www.w3.org/2000/svg"
   viewBox="0 0 208.75956 150.70175"
  preserveAspectRatio="xMinYMin meet"
  width="100%"
  height="100%">
  <style>path { fill: white; }</style>
  <g transform="translate(-548.7234,-276.00281)">
    <path
       d="m 551.05246,276.00656 c 68.44325,-0.005 136.88649,-0.005 205.33031,0 -7.66856,7.4763 -15.16067,15.11896 -22.8639,22.56127 -9.38612,9.09045 -18.53558,18.40512 -27.91318,27.50332 -5.33465,5.30103 -10.83113,10.44763 -16.03252,15.87387 -9.32286,9.16201 -18.7169,18.26082 -27.97344,27.48365 -4.70614,4.06671 -12.79633,3.91406 -17.0492,-0.72866 -31.2078,-30.85866 -62.29635,-61.82942 -93.49807,-92.69345 z m 0,0" />
    <path
       d="m 548.72401,419.58756 c 0.0219,-44.82797 0.0231,-89.65593 -6.1e-4,-134.4833 22.53049,22.19455 42.09503,42.7537 64.55432,65.01623 -21.73937,23.52988 -43.16256,46.33663 -64.55371,69.46707 z" />
    <path
       d="m 757.48235,420.11697 c -0.0219,-44.82797 -0.0231,-89.65593 6.1e-4,-134.4833 -22.53049,22.19455 -42.09503,42.7537 -64.55432,65.01623 21.73937,23.52988 43.16256,46.33663 64.55371,69.46707 z" />
    <path
       d="m 551.84792,426.70096 66.90259,-71.27776 c 4.78524,4.56937 14.08947,12.9599 18.93859,17.46727 11.3842,10.13754 22.34163,9.98728 33.44047,-0.49433 4.41836,-4.33324 12.39844,-12.20321 16.82227,-16.5311 l 65.03509,70.83532 c -67.98933,0.006 -133.14965,0.005 -201.13901,6e-4 z" />
  </g>
</svg>
