<?xml version="1.0" ?>
<svg
  xmlns="http://www.w3.org/2000/svg"
   viewBox="0 0 383.90056 383.9"
  preserveAspectRatio="xMinYMin meet"
  width="100%"
  height="100%">
  <style>path { fill: white; }</style>
  <g transform="translate(-64,-64)">
    <path
       d="M 417.2,64 H 96.8 C 79.3,64 64,76.6 64,93.9 V 415 c 0,17.4 15.3,32.9 32.8,32.9 h 320.3 c 17.6,0 30.8,-15.6 30.8,-32.9 V 93.9 C 448,76.6 434.7,64 417.2,64 z M 183,384 H 128 V 213 h 55 V 384 z M 157.4,187 H 157 c -17.6,0 -29,-13.1 -29,-29.5 0,-16.7 11.7,-29.5 29.7,-29.5 18,0 29,12.7 29.4,29.5 0,16.4 -11.4,29.5 -29.7,29.5 z M 384,384 h -55 v -93.5 c 0,-22.4 -8,-37.7 -27.9,-37.7 -15.2,0 -24.2,10.3 -28.2,20.3 -1.5,3.6 -1.9,8.5 -1.9,13.5 V 384 H 216 V 213 h 55 v 23.8 c 8,-11.4 20.5,-27.8 49.6,-27.8 36.1,0 63.4,23.8 63.4,75.1 V 384 z" />
  </g>
</svg>
